HIERARCHY
ROOT Hips
{
	OFFSET 0.000000 8.830580 0.000000
	CHANNELS 6 Xposition Yposition Zposition Zrotation Yrotation Xrotation 
	JOINT Spine
	{
		OFFSET 0.000000 0.010000 0.000000
		CHANNELS 3 Zrotation Yrotation Xrotation
		JOINT Spine1
		{
			OFFSET 0.000000 2.459130 0.000000
			CHANNELS 3 Zrotation Yrotation Xrotation
			JOINT Neck
			{
				OFFSET 0.000000 2.484630 0.000000
				CHANNELS 3 Zrotation Yrotation Xrotation
				JOINT Head_virtual
				{
					OFFSET 0.000000 0.000000 0.000000
					CHANNELS 3 Zrotation Yrotation Xrotation
					JOINT Head
					{
						OFFSET 0.000000 0.927525 0.000000
						CHANNELS 3 Zrotation Yrotation Xrotation
						End Site
						{
							OFFSET 0.000000 0.000000 0.000000
						}
					}
				}
				JOINT LeftUpArm_virtual
				{
					OFFSET 0.000000 0.000000 0.000000
					CHANNELS 3 Zrotation Yrotation Xrotation
					JOINT LeftUpArm
					{
						OFFSET 1.248820 0.000000 0.000000
						CHANNELS 3 Zrotation Yrotation Xrotation
						JOINT LeftForeArm
						{
							OFFSET 2.597580 0.000000 0.000000
							CHANNELS 3 Zrotation Yrotation Xrotation
							JOINT LeftHand
							{
								OFFSET 2.455420 0.000000 0.000000
								CHANNELS 3 Zrotation Yrotation Xrotation
								End Site
								{
									OFFSET 0.000000 0.000000 0.000000
								}
							}
						}
					}
				}
				JOINT RightUpArm_virtual
				{
					OFFSET -0.000000 -0.000000 -0.000000
					CHANNELS 3 Zrotation Yrotation Xrotation
					JOINT RightUpArm
					{
						OFFSET -1.248820 -0.000000 -0.000000
						CHANNELS 3 Zrotation Yrotation Xrotation
						JOINT RightForeArm
						{
							OFFSET -2.597580 -0.000000 -0.000000
							CHANNELS 3 Zrotation Yrotation Xrotation
							JOINT RightHand
							{
								OFFSET -2.455420 -0.000000 -0.000000
								CHANNELS 3 Zrotation Yrotation Xrotation
								End Site
								{
									OFFSET 0.000000 0.000000 0.000000
								}
							}
						}
					}
				}
			}
		}
	}
	JOINT LeftUpLeg
	{
		OFFSET 1.271939 0.000000 0.000000
		CHANNELS 3 Zrotation Yrotation Xrotation
		JOINT LeftLowLeg
		{
			OFFSET 0.000000 -4.342910 0.000000
			CHANNELS 3 Zrotation Yrotation Xrotation
			JOINT LeftFoot
			{
				OFFSET 0.000000 -4.487670 0.000000
				CHANNELS 3 Zrotation Yrotation Xrotation
				JOINT LeftToeBase
				{
					OFFSET 0.000000 0.000000 1.515070
					CHANNELS 3 Zrotation Yrotation Xrotation
					End Site
					{
						OFFSET 0.000000 0.000000 0.000000
					}
				}
			}
		}
	}
	JOINT RightUpLeg
	{
		OFFSET -1.271939 0.000000 0.000000
		CHANNELS 3 Zrotation Yrotation Xrotation
		JOINT RightLowLeg
		{
			OFFSET 0.000000 -4.342910 0.000000
			CHANNELS 3 Zrotation Yrotation Xrotation
			JOINT RightFoot
			{
				OFFSET 0.000000 -4.487670 0.000000
				CHANNELS 3 Zrotation Yrotation Xrotation
				JOINT RightToeBase
				{
					OFFSET 0.000000 0.000000 1.515070
					CHANNELS 3 Zrotation Yrotation Xrotation
					End Site
					{
						OFFSET 0.000000 0.000000 0.000000
					}
				}
			}
		}
	}
}
MOTION
Frames: 13
Frame Time: 0.041667
-19.442766 9.222327 48.935839 -175.809958 -0.428137 -174.450149 2.220566 -2.054185 -8.267750 -0.410917 -2.329217 4.502537 0.000000 0.000000 0.000000 -3.528839 4.732153 -4.803661 5.413063 8.705551 -47.428950 -3.477210 13.983400 -4.844230 -12.595500 -3.924350 -26.863600 0.000000 -18.020500 0.000000 24.242100 6.517510 18.183500 10.835700 -10.368000 -0.498603 11.669000 1.247210 -33.542900 0.000000 20.379700 0.000000 -18.233299 -2.174720 22.498600 3.555646 -1.013704 -4.918842 0.000000 0.000000 7.479280 9.348470 -2.071755 6.875916 0.000000 0.000000 -37.901899 3.165803 6.419469 -2.913866 0.000000 0.000000 7.163350 8.034554 -7.142515 8.705725 0.000000 0.000000 -27.444300 
-19.443167 9.222113 48.936221 -175.810824 -0.437270 -174.443334 2.222669 -2.054971 -8.274549 -0.415195 -2.330340 4.528613 0.000000 0.000000 0.000000 -3.542532 4.746842 -4.803525 5.409963 8.704270 -47.395828 -3.495710 13.986600 -4.842440 -12.571500 -3.933510 -26.728500 0.000000 -18.021099 0.000000 24.224701 6.468690 18.258900 10.842900 -10.356000 -0.483913 11.679500 1.257500 -33.584301 0.000000 20.375601 0.000000 -18.264299 -2.180930 22.413601 3.551490 -0.999404 -4.927061 0.000000 0.000000 7.470200 9.176295 -2.174624 6.922910 0.000000 0.000000 -38.043200 3.163530 6.388272 -2.923911 0.000000 0.000000 7.168680 8.035801 -7.128182 8.701782 0.000000 0.000000 -27.451000 
-19.443271 9.222069 48.936316 -175.807882 -0.436417 -174.442122 2.221745 -2.048371 -8.274425 -0.406656 -2.323439 4.545044 0.000000 0.000000 0.000000 -3.564083 4.754843 -4.812049 5.428291 8.683885 -47.386491 -3.499830 13.965500 -4.832280 -12.582800 -3.911270 -26.699699 0.000000 -18.057100 0.000000 24.176600 6.493240 18.303400 10.839800 -10.380300 -0.476884 11.692100 1.294670 -33.616100 0.000000 20.366600 0.000000 -18.231899 -2.177130 22.573500 3.553387 -0.989900 -4.930258 0.000000 0.000000 7.471980 9.175516 -2.182227 6.918912 0.000000 0.000000 -38.052500 3.165383 6.426259 -2.922831 0.000000 0.000000 7.162560 8.036039 -7.160317 8.702438 0.000000 0.000000 -27.451000 
-19.443776 9.221941 48.936796 -175.809757 -0.435125 -174.450877 2.215827 -2.035007 -8.259916 -0.409114 -2.308863 4.573351 0.000000 0.000000 0.000000 -3.551503 4.751001 -4.799450 5.408947 8.697287 -47.378468 -3.520790 13.942100 -4.816710 -12.593400 -3.890340 -26.798100 0.000000 -18.133600 0.000000 24.177601 6.555510 18.195400 10.868300 -10.380300 -0.504915 11.705000 1.301440 -33.626499 0.000000 20.356501 0.000000 -18.204700 -2.167380 22.530500 3.546969 -0.991277 -4.941351 0.000000 0.000000 7.508230 9.185816 -2.173367 6.907083 0.000000 0.000000 -38.043699 3.160594 6.433558 -2.919793 0.000000 0.000000 7.169600 8.054030 -7.159857 8.692782 0.000000 0.000000 -27.461100 
-19.443855 9.221889 48.936791 -175.808712 -0.433975 -174.458240 2.215751 -2.033987 -8.254187 -0.414587 -2.307848 4.588209 0.000000 0.000000 0.000000 -3.541758 4.747653 -4.805382 5.402368 8.704948 -47.373692 -3.531320 13.946100 -4.821470 -12.586500 -3.887340 -26.835501 0.000000 -18.143499 0.000000 24.172899 6.583370 18.192200 10.885100 -10.371100 -0.517063 11.697100 1.298210 -33.561501 0.000000 20.354500 0.000000 -18.155399 -2.137260 22.602800 3.547002 -1.014442 -4.937456 0.000000 0.000000 7.515190 9.186813 -2.147592 6.905584 0.000000 0.000000 -38.042900 3.161717 6.433424 -2.911641 0.000000 0.000000 7.168490 8.061380 -7.155917 8.688836 0.000000 0.000000 -27.442700 
-19.444154 9.221835 48.937279 -175.812976 -0.437331 -174.476425 2.170168 -2.063550 -8.232986 -0.340666 -2.326306 4.616723 0.000000 0.000000 0.000000 -3.601948 4.788556 -4.832631 5.408440 8.685267 -47.364681 -3.582850 14.001200 -4.855140 -12.582300 -3.898290 -26.759600 0.000000 -18.131599 0.000000 24.188200 6.536530 18.236300 10.858700 -10.316800 -0.523635 11.705900 1.300370 -33.530102 0.000000 20.325399 0.000000 -18.159100 -2.147570 22.451300 3.541543 -1.056554 -4.938732 0.000000 0.000000 7.549010 9.182584 -2.111503 6.901489 0.000000 0.000000 -38.033400 3.156501 6.447734 -2.903139 0.000000 0.000000 7.184920 8.066600 -7.163880 8.675068 0.000000 0.000000 -27.442900 
-19.444852 9.221704 48.937050 -175.820904 -0.449405 -174.499790 2.175028 -2.035243 -8.198588 -0.389933 -2.299954 4.631389 0.000000 0.000000 0.000000 -3.531946 4.748967 -4.860857 5.410114 8.711385 -47.352923 -3.546250 13.942400 -4.827260 -12.588200 -3.866900 -26.678200 0.000000 -18.114300 0.000000 24.192499 6.513660 18.167500 10.909700 -10.349200 -0.496021 11.725000 1.282330 -33.544800 0.000000 20.347099 0.000000 -18.129999 -2.228340 22.363501 3.528487 -1.120390 -4.936146 0.000000 0.000000 7.585920 9.194853 -2.050087 6.899807 0.000000 0.000000 -38.044500 3.145927 6.441639 -2.876918 0.000000 0.000000 7.181380 8.082716 -7.161848 8.673749 0.000000 0.000000 -27.462600 
-19.445371 9.221642 48.937029 -175.818600 -0.449914 -174.523119 2.169639 -2.030411 -8.173627 -0.386473 -2.293972 4.650225 0.000000 0.000000 0.000000 -3.523923 4.747853 -4.889617 5.420781 8.714235 -47.344379 -3.562130 13.951400 -4.835990 -12.589400 -3.877600 -26.734400 0.000000 -18.118200 0.000000 24.195400 6.477800 18.202000 10.934600 -10.345300 -0.498608 11.714300 1.277300 -33.549599 0.000000 20.335199 0.000000 -18.121500 -2.188940 22.375500 3.526597 -1.155082 -4.924073 0.000000 0.000000 7.611570 9.203594 -2.012012 6.890939 0.000000 0.000000 -38.031799 3.146776 6.445761 -2.859642 0.000000 0.000000 7.195290 8.091973 -7.159921 8.667895 0.000000 0.000000 -27.463400 
-19.446558 9.221459 48.936781 -175.819394 -0.449009 -174.557508 2.155198 -2.020263 -8.138753 -0.380332 -2.280745 4.677894 0.000000 0.000000 0.000000 -3.469742 4.717780 -4.910445 5.383073 8.746793 -47.341908 -3.590550 13.953700 -4.850910 -12.598700 -3.891260 -26.786400 0.000000 -18.130501 0.000000 24.258101 6.417200 18.210800 10.957500 -10.349200 -0.530224 11.735600 1.269040 -33.563301 0.000000 20.341499 0.000000 -18.212700 -2.202360 22.383301 3.515100 -1.186545 -4.907905 0.000000 0.000000 7.651640 9.240066 -1.959410 6.877411 0.000000 0.000000 -38.043100 3.142672 6.443490 -2.827969 0.000000 0.000000 7.203950 8.106867 -7.157206 8.656654 0.000000 0.000000 -27.462400 
-19.447131 9.221338 48.936657 -175.819476 -0.451649 -174.571149 2.151285 -2.023364 -8.124420 -0.381941 -2.282976 4.690821 0.000000 0.000000 0.000000 -3.469379 4.729098 -4.933561 5.391876 8.756137 -47.329010 -3.596440 13.975100 -4.863330 -12.597600 -3.898950 -26.714500 0.000000 -18.141600 0.000000 24.243700 6.398900 18.308800 10.969100 -10.332000 -0.540359 11.741200 1.251880 -33.535301 0.000000 20.354601 0.000000 -18.228201 -2.235440 22.343399 3.511103 -1.218392 -4.899890 0.000000 0.000000 7.662040 9.239343 -1.930077 6.876200 0.000000 0.000000 -38.034201 3.140806 6.430026 -2.813241 0.000000 0.000000 7.205120 8.097718 -7.149070 8.649634 0.000000 0.000000 -27.437200 
-19.448786 9.221035 48.936388 -175.821628 -0.443225 -174.584867 2.134552 -2.012498 -8.111777 -0.380012 -2.268474 4.727633 0.000000 0.000000 0.000000 -3.427684 4.719280 -4.965630 5.408620 8.781846 -47.311465 -3.624110 13.971200 -4.865920 -12.551400 -3.894770 -26.447599 0.000000 -18.141701 0.000000 24.178499 6.349310 18.284500 10.997200 -10.348100 -0.536493 11.753600 1.290230 -33.559101 0.000000 20.326300 0.000000 -18.126499 -2.164800 22.527000 3.497974 -1.304538 -4.904174 0.000000 0.000000 7.704420 9.249583 -1.837707 6.873242 0.000000 0.000000 -38.037500 3.127171 6.472617 -2.805849 0.000000 0.000000 7.220900 8.130856 -7.164898 8.631015 0.000000 0.000000 -27.449500 
-19.450350 9.220895 48.936025 -175.824353 -0.438655 -174.603241 2.099221 -2.025711 -8.110592 -0.334827 -2.273204 4.792140 0.000000 0.000000 0.000000 -3.415796 4.715903 -5.004784 5.405473 8.787745 -47.287327 -3.658950 13.983100 -4.846390 -12.569400 -3.888070 -26.442801 0.000000 -18.188299 0.000000 24.133801 6.349400 18.261200 10.980200 -10.307100 -0.535155 11.784100 1.280840 -33.508499 0.000000 20.328899 0.000000 -18.073799 -2.178920 22.498600 3.487187 -1.400815 -4.894616 0.000000 0.000000 7.732870 9.270588 -1.746145 6.868585 0.000000 0.000000 -37.978100 3.116398 6.498865 -2.789761 0.000000 0.000000 7.230860 8.158103 -7.175411 8.616296 0.000000 0.000000 -27.454500 
-19.452202 9.220659 48.935650 -175.823103 -0.432807 -174.599493 2.072609 -2.022026 -8.132608 -0.306653 -2.263253 4.844728 0.000000 0.000000 0.000000 -3.373560 4.696087 -4.998844 5.411288 8.806512 -47.277854 -3.713910 13.953200 -4.862270 -12.582700 -3.880390 -26.664400 0.000000 -18.262699 0.000000 24.097300 6.436170 18.178900 10.989200 -10.269800 -0.520985 11.791100 1.259260 -33.458900 0.000000 20.328400 0.000000 -18.032400 -2.172310 22.428699 3.476732 -1.480804 -4.898320 0.000000 0.000000 7.741970 9.285756 -1.659322 6.871515 0.000000 0.000000 -37.933001 3.106287 6.475448 -2.792368 0.000000 0.000000 7.234180 8.165773 -7.152300 8.605010 0.000000 0.000000 -27.422000 
